<svg xmlns="http://www.w3.org/2000/svg"  viewBox="0 0 100 100" width="200px" height="200px" baseProfile="basic"><path fill="#316db0" d="M80.066,29.687c-9.443-17.423-36.665-22.063-51.83-9.49c-0.451,0.374-0.816,0.783-1.115,1.214	C15.935,30.233,10.65,45.589,15.803,59.935c2.909,8.098,8.728,15.14,16.722,18.208c0.312,0.319,0.685,0.611,1.131,0.863	c2.675,1.512,5.407,2.38,8.16,2.771c9.406,2.017,20.048,0.637,27.53-4.959c2.365-1.769,4.411-3.849,6.137-6.15	C85.545,60.576,87.56,43.514,80.066,29.687z"/><path fill="#316db0" d="M75.458,52.805c7.1,0,6.544-10.99-0.517-10.99C67.842,41.815,68.397,52.805,75.458,52.805 L75.458,52.805z"/><path fill="#316db0" d="M71.103,51.18c2.051,3.911-1.825,8.725-3.868,11.811c-2.196,3.318,1.311,8.542,5.173,7.966	c12.259-1.83,12.623-19.342,10.762-28.711c-3.496,1.108-6.992,2.216-10.488,3.325c1.884,6.148,1.051,12.59-3.057,17.668	c-3.987,4.93-9.873,6.489-15.766,7.966c-6.881,1.725-3.513,12.203,3.325,10.488c9.004-2.257,17.091-5.697,22.47-13.616	c5.207-7.667,6.211-17.042,3.517-25.832c-2.124-6.931-11.834-3.446-10.488,3.325c0.577,2.904,0.617,5.914,0.097,8.827	c-0.194,1.086-0.45,2.201-0.799,3.248c-0.624,1.875-1.811,2.579-0.089,2.322c1.724,2.655,3.449,5.311,5.173,7.966	c4.75-7.176,7.516-14.636,3.264-22.744C77.042,38.923,67.838,44.954,71.103,51.18L71.103,51.18z"/><path fill="#f2f2f2" d="M45.903,61.542c2.582,0,2.38-3.996-0.188-3.996C43.134,57.546,43.336,61.542,45.903,61.542 L45.903,61.542z"/><path fill="#f2f2f2" d="M43.688,60.6c0.057,2.347,0.031,4.691-0.079,7.036c2.997-0.141,5.994-0.282,8.992-0.423	c-0.029-2.845-0.058-5.69-0.087-8.535c-0.023-2.221-1.986-4.096-4.134-4.237c-2.032-0.134-4.539,1.253-4.764,3.513	c-0.331,3.33-0.43,6.614-0.112,9.949c0.23,2.419,2.199,4.402,4.707,4.284c2.342-0.11,4.516-2.279,4.284-4.707	c-0.242-2.539-0.329-5.113-0.076-7.655c-2.966-0.241-5.932-0.483-8.897-0.724c0.029,2.845,0.058,5.69,0.087,8.535	c0.025,2.431,2.344,4.395,4.707,4.284c2.622-0.123,4.17-2.272,4.284-4.707c0.11-2.345,0.136-4.689,0.079-7.036	C52.538,54.371,43.547,54.814,43.688,60.6L43.688,60.6z"/><path fill="#f2f2f2" d="M43.91,77.73c-0.557,0.47-1.012,0.989-1.12,1.741c-0.105,0.728,0.033,1.4,0.39,2.04	c0.629,1.126,1.873,1.537,3.09,1.577c0.802,0.027,1.625-0.107,2.424-0.174c0.897-0.075,1.793-0.15,2.69-0.226	c1.042-0.087,2.004-0.99,1.904-2.092c-0.094-1.047-0.979-1.998-2.092-1.904c-0.917,0.077-1.834,0.154-2.751,0.231	c-0.841,0.071-1.72,0.224-2.564,0.156c0.17,0.014,0.34,0.028,0.51,0.042c-0.167-0.02-0.324-0.052-0.483-0.106	c0.161,0.056,0.322,0.113,0.483,0.169c-0.094-0.038-0.178-0.08-0.266-0.131c0.143,0.097,0.286,0.194,0.429,0.291	c-0.084-0.058-0.155-0.121-0.224-0.197c0.116,0.136,0.233,0.271,0.349,0.407c-0.063-0.081-0.115-0.164-0.161-0.256	c0.077,0.162,0.153,0.323,0.23,0.485c-0.039-0.094-0.067-0.186-0.086-0.285c0.03,0.17,0.061,0.34,0.091,0.51	c-0.009-0.074-0.011-0.141-0.008-0.216c-0.014,0.17-0.028,0.34-0.042,0.51c0.009-0.072,0.023-0.134,0.045-0.203	c-0.056,0.161-0.113,0.322-0.169,0.483c0.016-0.043,0.037-0.084,0.062-0.122c-0.097,0.143-0.194,0.286-0.291,0.429	c0.026-0.039,0.056-0.075,0.09-0.107c-0.136,0.116-0.271,0.233-0.407,0.349c0.019-0.016,0.037-0.031,0.056-0.047	c0.424-0.358,0.747-0.696,0.867-1.262c0.102-0.48,0.011-1.099-0.279-1.505c-0.301-0.421-0.736-0.779-1.262-0.867	C44.93,77.369,44.305,77.396,43.91,77.73L43.91,77.73z"/><path fill="#f2f2f2" d="M64.178,27.256c-0.549-0.372-1.135-0.412-1.777-0.401c-1.41,0.023-2.819,0.046-4.229,0.07	c-0.526,0.009-1.047,0.036-1.555,0.101c-2.173-0.103-4.28,0.355-6.286,1.326c-0.399,0.085-0.808,0.232-1.224,0.485	c-6.679,4.073-6.335,12.595-6.236,19.608c-0.157,0.007-0.318,0.018-0.478,0.028c-0.259-0.126-0.559-0.205-0.905-0.207	c-1.962-0.013-3.925-0.026-5.887-0.039c-0.402-0.003-0.775,0.151-1.085,0.391c-0.62,0.371-1.018,1.089-1.013,1.829	c0.01,1.54,0.072,3.076,0.168,4.612c-0.11,0.453-0.045,0.954,0.164,1.402c0.305,0.925,1.147,1.332,1.974,1.26	c2.445,0.039,4.891,0.078,7.336,0.117c-0.036,0.21-0.066,0.424-0.067,0.657c0.007,6.56-0.095,13.116-0.306,19.673	c-0.004,0.11,0.015,0.207,0.021,0.311c-0.042,0.243-0.084,0.486-0.126,0.729c-0.424,2.459,1.493,4.002,3.415,4.134	c0.989,0.382,2.198,0.306,3.15-0.182c1.96,0.242,4.198-1.148,4.151-3.576c-0.137-7.195-0.141-14.392-0.262-21.587	c1.294,0.021,2.589,0.041,3.883,0.062c1.899,0.03,4.823,0.705,5.872-1.386c0.449-0.893,0.555-2.102,0.774-3.066	c0.227-0.996,0.672-2.181,0.624-3.213c-0.099-2.131-1.952-2.408-3.636-2.311c-1.709,0.098-3.431-0.033-5.143-0.016	c-0.865,0.009-1.726,0.054-2.588,0.105c0.008-1.173,0.017-2.346,0.025-3.519c0.189-2.442,0.661-4.786,1.76-6.638	c0.101-0.09,0.224-0.2,0.267-0.242c0.403-0.324,0.824-0.624,1.27-0.886c0.123-0.072,0.248-0.142,0.374-0.21	c0.124-0.061,0.182-0.092,0.188-0.097c0.227-0.105,0.46-0.201,0.694-0.287c0.155-0.057,0.288-0.098,0.429-0.145	c0.077,0.003,0.153,0.012,0.233,0.004c1.463-0.148,2.928-0.286,4.39-0.444c0.673-0.073,1.266-0.254,1.752-0.754	c0.477-0.491,0.609-1.11,0.657-1.765c0.05-0.68,0.079-1.363,0.118-2.044c0.038-0.678,0.128-1.376,0.112-2.055	C65.161,28.36,64.775,27.661,64.178,27.256z"/><path d="M21.901,31.216c0,0-0.4,0.567-1.155,1.638c-0.688,1.116-1.762,2.749-2.763,5.056c-1.016,2.292-2.037,5.232-2.559,8.795	c-0.547,3.548-0.579,7.732,0.396,12.201c0.456,2.244,1.244,4.516,2.228,6.807c0.969,2.304,2.292,4.582,3.914,6.759	c3.23,4.372,7.949,8.132,13.506,10.62c2.769,1.265,5.723,2.264,8.78,3.048c3.122,0.829,6.551,1.086,9.878,0.788	c6.692-0.603,13.349-2.93,19.31-6.741c2.97-1.922,5.703-4.196,7.966-6.904c2.276-2.735,3.863-5.893,4.918-9.086	c2.1-6.43,2.188-12.994,1.308-18.984c-0.445-3.006-1.192-5.889-2.21-8.587c-1.01-2.701-2.267-5.222-3.822-7.483	c-3.145-4.482-7.243-7.648-11.25-9.792c-4.056-2.107-8.048-3.244-11.581-3.829c-3.541-0.61-6.647-0.573-9.143-0.404	c-0.624,0.055-1.213,0.108-1.767,0.157c-0.552,0.057-1.062,0.168-1.538,0.24c-0.951,0.154-1.753,0.288-2.387,0.475	c-1.269,0.324-1.941,0.495-1.941,0.495s0.682-0.122,1.969-0.351c0.64-0.14,1.447-0.218,2.399-0.306	c0.476-0.039,0.985-0.116,1.534-0.136c0.55-0.013,1.134-0.026,1.753-0.041c2.468-0.008,5.509,0.143,8.918,0.931	c3.401,0.762,7.192,2.069,10.955,4.259c3.718,2.224,7.413,5.373,10.142,9.597c1.338,2.114,2.431,4.508,3.291,7.062	c0.87,2.552,1.49,5.281,1.83,8.112c0.678,5.637,0.436,11.773-1.551,17.542c-0.997,2.869-2.429,5.621-4.414,7.969	c-2.004,2.363-4.493,4.432-7.225,6.198c-5.483,3.515-11.697,5.729-17.758,6.357c-3.051,0.307-5.983,0.145-8.843-0.544	c-2.928-0.685-5.736-1.562-8.357-2.674c-5.259-2.191-9.676-5.485-12.831-9.421c-1.581-1.961-2.909-4.036-3.917-6.176	c-1.026-2.13-1.876-4.255-2.407-6.359c-1.128-4.198-1.318-8.207-0.982-11.668c0.309-3.475,1.127-6.409,1.981-8.726	c0.839-2.332,1.788-4.02,2.395-5.18C21.544,31.809,21.901,31.216,21.901,31.216z"/></svg>