<svg width="123" height="145" viewBox="0 0 123 145" fill="none" xmlns="http://www.w3.org/2000/svg">
<path d="M122.479 103.33C121.842 114.866 115.034 123.935 105.673 130.283C95.0754 137.751 81.9042 141.529 69.2794 143.046C59.5653 144.294 49.5542 144.796 39.8955 142.393C29.6943 139.926 19.6555 136.021 12.2699 128.338C3.11812 119.274 -0.921178 105.516 1.05491 92.9113C2.12809 85.6129 5.11005 78.7817 8.61473 72.3663C11.5056 67.2301 14.4281 61.9553 16.0518 56.2329C17.9764 49.7027 18.6258 41.9687 24.0908 37.2522C29.9319 32.7179 34.985 33.1298 38.3907 25.0591C41.2221 17.226 44.3823 10.3157 50.8451 4.83095C57.4862 -1.14483 67.6716 -2.33286 73.2791 5.61108C76.7996 10.9057 75.861 17.9507 79.4132 23.2295C82.114 27.3995 86.2523 30.4369 89.6739 33.9931C92.9211 37.2562 95.7447 40.844 98.0851 44.9071C98.992 46.4317 99.9146 48.0316 100.94 49.4335C106.025 56.9774 114.789 55.8449 119.002 63.0958C122.444 68.9924 119.47 76.172 120.06 82.6824C120.222 85.6485 120.935 88.5117 121.525 91.4302C122.309 95.319 122.772 99.2356 122.483 103.243V103.322L122.479 103.33Z" fill="#FFE1F0"/>
<path d="M109.985 94.82C109.415 92.044 108.243 89.4264 107.443 86.7098C107.011 85.1138 106.75 83.4664 106.532 81.827C106.18 78.9678 105.724 76.0333 106.972 73.4316C107.451 72.0257 110.128 70.0338 109.435 68.6676C109.296 68.426 109.043 68.2161 108.738 68.0498C106.532 66.8063 104.243 67.7726 102.469 69.222C100.873 70.4536 99.6058 72.0139 98.6712 73.8712C98.1802 74.8335 97.6891 75.8155 97.0278 76.6709C95.9665 78.1639 94.2636 79.0549 92.8538 77.4392C91.8321 76.4016 91.7331 75.0077 92.0816 73.685C92.9132 70.2675 92.7034 66.8222 92.4618 63.369C92.3945 60.9929 91.052 58.9337 90.3273 56.7358C89.6026 53.5638 87.575 50.9779 86.0861 48.1662C85.492 46.8831 84.3832 45.9961 83.3734 45.0496C82.1537 43.9368 81.0844 42.6894 79.94 41.4776C78.8628 40.3569 77.7144 39.3233 76.4551 38.4204C75.3661 37.6403 74.1741 36.975 73.188 36.0602C72.1148 35.09 71.3109 33.8584 70.3605 32.7773C68.1349 30.3181 65.7985 27.8865 64.2342 24.9204C62.4918 21.3207 64.0798 17.3092 64.7332 13.6223C64.8679 11.8363 62.8957 10.9057 61.4028 11.8007C59.0941 13.2025 57.0863 15.1786 55.5537 17.4082C54.8924 18.6199 53.7677 19.4793 53.0747 20.6515C51.0471 25.0115 49.2968 29.6686 48.8533 34.492C48.7939 37.2799 49.6888 40.0005 50.1403 42.7369C50.6472 45.3466 50.4373 47.9959 50.3779 50.6452C50.1126 54.6489 50.4571 59.2663 47.5623 62.4384C44.3071 65.8995 42.1607 62.4304 41.2934 59.2386C40.9449 57.9159 40.7271 56.5616 40.3509 55.2508C39.9312 53.6192 39.349 52.0392 38.6877 50.4908C38.3471 49.6631 38.1214 48.7681 37.6422 48.0672C37.1314 47.3266 36.3354 46.8395 35.6305 46.2059C35.0048 45.6555 34.2445 45.1644 33.3891 45.2001C31.3457 45.1209 30.5022 46.4713 30.2171 48.3206C29.7577 51.1442 29.6983 54.0311 28.8786 56.7873C28.6053 57.7575 28.4905 58.7515 28.3321 59.7455C27.8093 62.4938 26.6173 65.056 25.4848 67.6023C24.5462 69.7329 23.0493 71.5109 21.9088 73.5227C21.5128 74.2355 21.2118 74.9998 20.899 75.7522C20.1228 77.661 18.7605 79.34 17.7032 81.1498C16.5508 83.0863 15.3667 85.003 14.9113 87.2365C14.7965 87.7513 14.6816 88.2661 14.5311 88.769C13.4976 91.9292 12.4125 95.0458 12.3927 98.3841C12.3848 99.2395 12.4561 100.123 12.5709 100.978C13.2124 104.962 13.8777 108.922 15.4142 112.621C15.9251 113.579 16.6498 114.407 17.2953 115.278C18.3368 116.597 19.1565 118.046 20.2812 119.313C22.8513 121.832 25.6748 124.129 28.8865 125.74C30.621 126.588 32.5575 127.004 34.3474 127.677C37.7967 128.944 41.3132 130.302 44.9288 130.999C50.4373 131.867 56.0923 132.172 61.6602 131.273C68.6022 130.536 75.675 130.144 82.2923 127.78C85.2267 126.861 88.2166 125.97 91.0163 124.703C94.0735 123.265 96.8812 121.273 99.7563 119.487C102.283 117.82 104.441 115.634 106.465 113.397C108.057 111.163 109.688 108.767 110.278 106.063C110.575 104.447 110.258 102.843 110.476 101.255C110.852 99.1207 110.492 96.911 109.993 94.8913L109.977 94.8161L109.985 94.82ZM90.751 103.164C89.9273 109.472 85.6544 115.009 80.1419 117.983C77.8491 119.384 75.5482 120.778 72.9464 121.539C68.5072 122.897 63.9412 124.03 59.2604 123.871C55.6606 123.709 51.9342 123.84 48.4137 123.305C46.8772 123.087 45.4357 122.386 44.0338 121.788C40.2361 120.307 36.573 118.331 33.5752 115.559C31.2229 113.361 30.4388 110.189 30.2289 107.084C30.0864 105.184 29.8211 103.243 30.1656 101.35C31.2546 96.9822 34.9573 91.6401 38.9887 89.4977C41.9706 88.0879 42.7191 90.3966 43.5824 92.7212C44.509 94.8398 47.1702 95.9526 49.3483 95.4537C50.6036 95.1804 51.4827 94.0874 52.4054 93.2914C57.6367 89.0581 60.2148 82.5873 61.4266 76.1086C61.7156 74.5246 61.9374 72.9366 62.1592 71.3446C62.4364 69.7051 62.4997 67.8399 63.2284 66.3311C64.4283 63.8244 67.3825 65.1154 68.9349 66.6123C71.0931 68.6795 72.5188 71.6377 72.9979 74.6038C73.4177 77.3956 73.7979 80.0529 74.2176 83.0546C74.3404 83.91 74.3167 84.7139 74.1266 85.5376C73.6276 87.8582 73.093 90.452 72.396 92.8637C71.798 94.8755 71.2238 96.9704 71.4535 99.0851C71.6515 103.742 75.4255 105.235 79.3222 103.196C82.118 101.734 83.8407 98.9583 85.6623 96.4674C86.3633 95.517 87.4246 93.6993 88.7354 94.8438C90.9055 96.7169 90.9649 100.412 90.7629 103.081L90.755 103.16L90.751 103.164Z" fill="#F5693C"/>
</svg>
